HIERARCHY
ROOT simHips
{
  OFFSET 17.0616 99.1493 0.986275
  CHANNELS 6 Xposition Yposition Zposition Zrotation Xrotation Yrotation
  JOINT simSpine
  {
    OFFSET -0.000355721 21.3001 -0.016921
    CHANNELS 3 Zrotation Xrotation Yrotation
    JOINT simLeftArm
    {
      OFFSET 13.5181 21.3012 0
      CHANNELS 3 Zrotation Xrotation Yrotation
      JOINT simLeftForeArm
      {
        OFFSET 24.5783 0 0
        CHANNELS 3 Zrotation Xrotation Yrotation
        JOINT simLeftHand
        {
          OFFSET 24.5783 0 0
          CHANNELS 3 Zrotation Xrotation Yrotation
          End Site
          {
            OFFSET 7.32568 1.52588e-005 0.0169305
          }
        }
      }
    }
    JOINT simHead
    {
      OFFSET 0 27.4458 -0.00489235
      CHANNELS 3 Zrotation Xrotation Yrotation
      End Site
      {
        OFFSET 0 0 0
      }
    }
    JOINT simRightArm
    {
      OFFSET -13.5174 21.3012 0
      CHANNELS 3 Zrotation Xrotation Yrotation
      JOINT simRightForeArm
      {
        OFFSET -24.5783 0 0
        CHANNELS 3 Zrotation Xrotation Yrotation
        JOINT simRightHand
        {
          OFFSET -24.5783 0 0
          CHANNELS 3 Zrotation Xrotation Yrotation
          End Site
          {
            OFFSET -7.32568 1.52588e-005 0.0169305
          }
        }
      }
    }
  }
  JOINT simRightUpLeg
  {
    OFFSET -8.44614 -9.41038 0.835684
    CHANNELS 3 Zrotation Xrotation Yrotation
    JOINT simRightLeg
    {
      OFFSET 0 -40.9639 0
      CHANNELS 3 Zrotation Xrotation Yrotation
      JOINT simRightFoot
      {
        OFFSET 0 -40.9639 0
        CHANNELS 3 Zrotation Xrotation Yrotation
        End Site
        {
          OFFSET 0.50614 -9.67405 14.6709
        }
      }
    }
  }
  JOINT simLeftUpLeg
  {
    OFFSET 8.44614 -9.41038 0.835684
    CHANNELS 3 Zrotation Xrotation Yrotation
    JOINT simLeftLeg
    {
      OFFSET 0 -40.9639 0
      CHANNELS 3 Zrotation Xrotation Yrotation
      JOINT simLeftFoot
      {
        OFFSET 0 -40.9639 0
        CHANNELS 3 Zrotation Xrotation Yrotation
        End Site
        {
          OFFSET -0.50614 -9.67405 14.6709
        }
      }
    }
  }
}
MOTION
Frames:	12
Frame Time:	0.0333333
17.0616 99.1493 0.986275 3.83661e-005 0.010378 4.33557e-008 -8.53774e-007 2.23477e-015 -2.56799e-007 -6.83019e-006 -1.70755e-006 -1.53679e-005 7.68396e-006 1.70755e-006 0.000146209 1.59356e-010 0.000937474 -9.73939e-006 8.53774e-007 1.58872e-015 1.83428e-007 6.83019e-006 -8.53773e-007 5.12264e-006 -5.97642e-006 -5.97642e-006 -1.45685e-005 -5.75742e-013 6.83019e-006 9.48592e-006 -0.508205 5.01659 0.0334303 -1.39114e-005 5.04423 0.00669535 0.511999 -10.0608 0.0495472 0.821916 8.6524 -0.0621497 0.0056496 0.0141302 -8.79547e-005 -0.821761 -8.66653 -0.062325 
17.0792 99.1479 0.970006 3.83705e-005 0.010378 -2.39929e-005 -0.00841014 0.0892647 -0.0187644 -0.295864 -0.141044 0.0113147 0.00884779 0.084775 0.000146209 -0.0302171 0.000937473 0.0815646 0.00374698 0.0938118 -0.247054 0.337054 0.569074 0.0908067 -0.0759083 0.266249 0.178125 -0.0437969 0.136737 0.193087 -0.540733 5.06163 0.0453227 -0.010386 4.9893 -7.36187e-005 0.462192 -10.1 0.0368255 0.780513 8.64413 -0.0437862 0.0056484 -0.0197903 -0.00342142 -0.784776 -8.67565 -0.089672 
17.1481 99.1432 0.946306 -0.002841 0.010378 -0.0328688 0.0117658 0.155534 -0.029551 -0.592632 -0.188632 0.0370265 -0.0439463 0.209946 0.00014621 -0.140966 0.00225133 0.0318521 -0.0362635 0.316869 -0.402019 0.615094 0.490959 0.202724 -0.00735476 0.317213 0.0910631 0.0153425 0.0968095 0.293249 -0.582904 4.96394 0.0815953 -0.0108495 5.06673 0.0317099 0.577317 -10.1315 0.0213868 0.740557 8.59758 -0.0175219 0.00563742 0.0502057 0.0138733 -0.751697 -8.76203 -0.106128 
17.2211 99.1411 0.923935 -0.0130185 0.0101918 -0.100243 0.0750899 0.219905 -0.0359678 -0.885124 -0.274125 0.0634981 -0.0623153 0.395512 0.000146212 -0.270721 0.0323031 0.123372 -0.123466 0.595697 -0.476849 0.649809 0.435499 0.418892 0.179595 0.426068 0.000118709 0.221012 0.0446293 0.218341 -0.629558 4.93536 0.0970727 -0.00305749 5.0555 0.0520347 0.573373 -10.1259 0.0539072 0.692614 8.56807 0.0102974 0.00558478 0.0907021 0.0409365 -0.711116 -8.83935 -0.101788 
17.3006 99.1384 0.906553 -0.030348 0.0100056 -0.172761 0.124869 0.333773 -0.0202093 -1.06201 -0.507216 0.0973748 -0.075916 0.496123 0.000146214 -0.369392 0.0275682 0.258104 -0.137511 0.673798 -0.451537 0.570773 0.672004 0.631092 0.3413 0.588494 -4.39728e-005 0.376761 0.0652179 0.0778287 -0.67031 4.83839 0.133055 0.000470051 5.20537 0.0849294 0.608906 -10.1899 0.0674807 0.653997 8.61738 0.0261145 0.00250426 0.0280145 0.0690151 -0.70458 -8.90326 -0.0900801 
17.3877 99.1367 0.88996 -0.0540541 0.00983962 -0.253986 0.207725 0.475545 0.00504786 -1.16474 -0.519511 0.193015 -0.0650919 0.56781 0.000146216 -0.429302 0.0473552 0.282012 -0.140888 0.616734 -0.476537 0.39028 0.93538 0.773527 0.475394 0.660029 -7.58607e-005 0.591276 0.0363571 -0.0652975 -0.716023 4.89643 0.143933 -0.00192942 5.12308 0.117865 0.599023 -10.1574 0.0858843 0.618554 8.59248 0.0392145 -0.0145546 0.149236 0.0918178 -0.699397 -9.01952 -0.0739279 
17.4842 99.1335 0.878108 -0.0681852 0.00972106 -0.352891 0.268654 0.559833 0.0267724 -1.16526 -0.310397 0.312649 -0.0965953 0.549587 0.000146215 -0.428701 0.05467 0.312035 -0.148913 0.642617 -0.479415 0.137114 0.968398 0.926421 0.545568 0.678344 -4.78681e-005 0.713436 -0.00417993 -0.0466114 -0.768165 4.8139 0.155727 0.00892284 5.19534 0.161437 0.614935 -10.1845 0.126852 0.545861 8.47424 0.0560604 -0.00907084 0.298505 0.139279 -0.594894 -9.01013 -0.0173987 
17.5891 99.13 0.87404 -0.0780987 0.0282635 -0.469101 0.26751 0.561545 0.0470387 -1.02022 -0.280316 0.442895 -0.088633 0.493625 0.000146214 -0.381655 0.0531183 0.301882 -0.0743057 0.839736 -0.427478 -0.0732298 0.899307 1.05633 0.475553 0.701133 6.88764e-006 0.594091 0.0562836 0.0114669 -0.829358 4.79039 0.176507 0.01619 5.17349 0.197344 0.615495 -10.1432 0.158974 0.464604 8.53361 0.0949781 0.00107394 0.212019 0.184926 -0.566313 -9.00478 0.0143626 
17.6973 99.1283 0.875192 -0.0974331 0.0723889 -0.54471 0.255004 0.505809 0.0646603 -0.785542 -0.251402 0.531427 -0.0546348 0.481486 0.000146214 -0.34959 0.0815532 0.143474 0.0431488 1.03375 -0.450067 -0.263169 1.0596 1.08615 0.330751 0.615435 0.000104128 0.445168 0.107485 0.0734963 -0.889366 4.70563 0.187572 0.0181156 5.18537 0.227117 0.652294 -10.0957 0.16897 0.405013 8.59801 0.08807 0.011787 0.0824673 0.223272 -0.565273 -9.04643 0.0301546 
17.8049 99.1259 0.877101 -0.140776 0.117391 -0.593339 0.275065 0.454343 0.114778 -0.598884 0.00126769 0.578828 -0.0427411 0.318507 0.000146211 -0.221944 0.0685075 0.0158181 0.0951935 1.0841 -0.503715 -0.455577 1.38801 1.0366 0.0976803 0.530065 0.175575 0.335105 0.155125 0.23329 -0.913175 4.65819 0.111935 0.00284239 5.16923 0.250238 0.590063 -10.0257 0.208047 0.378832 8.46329 0.0536896 0.015182 0.160752 0.268631 -0.537843 -9.10615 0.0558353 
17.9243 99.1188 0.877917 -0.183933 0.154285 -0.620584 0.292511 0.436666 0.169972 -0.495537 0.187336 0.532165 0.0417676 0.301287 -6.77936e-005 -0.0826285 0.124775 -0.180845 0.115563 1.08876 -0.450047 -0.576157 1.44089 0.960662 -0.124156 0.329399 0.784126 0.248117 0.141547 0.288101 -0.935035 4.67366 0.0552723 -0.0280565 5.03356 0.300041 0.639448 -9.92792 0.251872 0.328607 8.58401 0.0287532 0.0243137 -0.0460215 0.314802 -0.444786 -9.04829 0.0992842 
18.0539 99.1123 0.877627 -0.208052 0.192204 -0.641149 0.253799 0.397053 0.188935 -0.461077 0.336962 0.504211 0.114883 0.238051 -0.192157 0.0589451 0.156499 -0.357905 0.191787 1.07791 -0.276856 -0.551521 1.56537 1.02132 -0.348527 0.18018 1.38167 0.130524 0.164998 0.27084 -0.991922 4.69477 0.0138419 -0.0493916 4.9249 0.322267 0.65764 -9.82573 0.261834 0.249561 8.59621 0.0274597 0.0407579 -0.0685052 0.347191 -0.411695 -9.07217 0.102431 
